







<svg xmlns="http://www.w3.org/2000/svg" version="1.1" xmlns:xlink="http://www.w3.org/1999/xlink" xmlns:svgjs="http://svgjs.dev/svgjs" viewBox="0 0 800 800"><defs><linearGradient x1="50%" y1="0%" x2="50%" y2="100%" id="ffflurry-grad" gradientTransform="rotate(270)"><stop stop-color="hsl(0, 0%, 80%)" stop-opacity="1" offset="0%"></stop><stop stop-color="hsl(105, 74%, 27%)" stop-opacity="1" offset="45%"></stop><stop stop-color="hsl(105, 69%, 60%)" stop-opacity="1" offset="100%"></stop></linearGradient></defs><rect width="100%" height="100%" fill="hsl(0, 0%, 80%)"></rect><g fill="url(#ffflurry-grad)"><rect width="38" height="3" x="516" y="246.5" rx="1.5" transform="rotate(63, 535, 248)" opacity="0.66"></rect><rect width="297" height="3" x="168.5" y="388.5" rx="1.5" transform="rotate(63, 317, 390)" opacity="0.91"></rect><rect width="640" height="3" x="81" y="373.5" rx="1.5" transform="rotate(63, 401, 375)" opacity="0.12"></rect><rect width="71" height="3" x="256.5" y="733.5" rx="1.5" transform="rotate(63, 292, 735)" opacity="0.47"></rect><rect width="137" height="3" x="198.5" y="294.5" rx="1.5" transform="rotate(63, 267, 296)" opacity="0.48"></rect><rect width="121" height="3" x="692.5" y="641.5" rx="1.5" transform="rotate(63, 753, 643)" opacity="0.32"></rect><rect width="174" height="3" x="666" y="63.5" rx="1.5" transform="rotate(63, 753, 65)" opacity="0.12"></rect><rect width="412" height="3" x="-127" y="302.5" rx="1.5" transform="rotate(63, 79, 304)" opacity="0.38"></rect><rect width="338" height="3" x="266" y="493.5" rx="1.5" transform="rotate(63, 435, 495)" opacity="0.67"></rect><rect width="242" height="3" x="109" y="146.5" rx="1.5" transform="rotate(63, 230, 148)" opacity="0.61"></rect><rect width="306" height="3" x="-40" y="108.5" rx="1.5" transform="rotate(63, 113, 110)" opacity="0.43"></rect><rect width="432" height="3" x="552" y="754.5" rx="1.5" transform="rotate(63, 768, 756)" opacity="0.24"></rect><rect width="56" height="3" x="194" y="70.5" rx="1.5" transform="rotate(63, 222, 72)" opacity="0.39"></rect><rect width="78" height="3" x="5" y="366.5" rx="1.5" transform="rotate(63, 44, 368)" opacity="0.97"></rect><rect width="738" height="3" x="-180" y="738.5" rx="1.5" transform="rotate(63, 189, 740)" opacity="0.93"></rect><rect width="334" height="3" x="326" y="553.5" rx="1.5" transform="rotate(63, 493, 555)" opacity="0.25"></rect><rect width="144" height="3" x="212" y="779.5" rx="1.5" transform="rotate(63, 284, 781)" opacity="0.14"></rect><rect width="768" height="3" x="-320" y="737.5" rx="1.5" transform="rotate(63, 64, 739)" opacity="0.70"></rect><rect width="86" height="3" x="205" y="653.5" rx="1.5" transform="rotate(63, 248, 655)" opacity="0.82"></rect><rect width="624" height="3" x="320" y="660.5" rx="1.5" transform="rotate(63, 632, 662)" opacity="0.11"></rect><rect width="218" height="3" x="154" y="18.5" rx="1.5" transform="rotate(63, 263, 20)" opacity="0.26"></rect><rect width="279" height="3" x="471.5" y="220.5" rx="1.5" transform="rotate(63, 611, 222)" opacity="0.60"></rect><rect width="113" height="3" x="510.5" y="146.5" rx="1.5" transform="rotate(63, 567, 148)" opacity="0.50"></rect><rect width="297" height="3" x="-57.5" y="528.5" rx="1.5" transform="rotate(63, 91, 530)" opacity="0.64"></rect><rect width="497" height="3" x="474.5" y="448.5" rx="1.5" transform="rotate(63, 723, 450)" opacity="0.08"></rect><rect width="520" height="3" x="241" y="89.5" rx="1.5" transform="rotate(63, 501, 91)" opacity="0.15"></rect><rect width="52" height="3" x="218" y="421.5" rx="1.5" transform="rotate(63, 244, 423)" opacity="0.52"></rect><rect width="606" height="3" x="360" y="130.5" rx="1.5" transform="rotate(63, 663, 132)" opacity="0.80"></rect><rect width="221" height="3" x="227.5" y="616.5" rx="1.5" transform="rotate(63, 338, 618)" opacity="0.15"></rect><rect width="289" height="3" x="-99.5" y="40.5" rx="1.5" transform="rotate(63, 45, 42)" opacity="0.92"></rect><rect width="212" height="3" x="403" y="413.5" rx="1.5" transform="rotate(63, 509, 415)" opacity="0.78"></rect><rect width="337" height="3" x="490.5" y="38.5" rx="1.5" transform="rotate(63, 659, 40)" opacity="0.66"></rect><rect width="301" height="3" x="390.5" y="761.5" rx="1.5" transform="rotate(63, 541, 763)" opacity="0.90"></rect><rect width="46" height="3" x="132" y="277.5" rx="1.5" transform="rotate(63, 155, 279)" opacity="0.86"></rect><rect width="706" height="3" x="37" y="276.5" rx="1.5" transform="rotate(63, 390, 278)" opacity="0.96"></rect><rect width="112" height="3" x="634" y="247.5" rx="1.5" transform="rotate(63, 690, 249)" opacity="0.45"></rect><rect width="483" height="3" x="254.5" y="705.5" rx="1.5" transform="rotate(63, 496, 707)" opacity="0.56"></rect><rect width="268" height="3" x="113" y="579.5" rx="1.5" transform="rotate(63, 247, 581)" opacity="0.08"></rect><rect width="549" height="3" x="108.5" y="128.5" rx="1.5" transform="rotate(63, 383, 130)" opacity="0.40"></rect><rect width="272" height="3" x="-74" y="226.5" rx="1.5" transform="rotate(63, 62, 228)" opacity="0.26"></rect><rect width="229" height="3" x="81.5" y="349.5" rx="1.5" transform="rotate(63, 196, 351)" opacity="0.51"></rect><rect width="73" height="3" x="587.5" y="561.5" rx="1.5" transform="rotate(63, 624, 563)" opacity="0.23"></rect><rect width="172" height="3" x="327" y="680.5" rx="1.5" transform="rotate(63, 413, 682)" opacity="0.35"></rect><rect width="45" height="3" x="604.5" y="454.5" rx="1.5" transform="rotate(63, 627, 456)" opacity="0.39"></rect><rect width="319" height="3" x="599.5" y="197.5" rx="1.5" transform="rotate(63, 759, 199)" opacity="0.48"></rect><rect width="195" height="3" x="161.5" y="360.5" rx="1.5" transform="rotate(63, 259, 362)" opacity="0.98"></rect><rect width="201" height="3" x="298.5" y="761.5" rx="1.5" transform="rotate(63, 399, 763)" opacity="0.07"></rect><rect width="187" height="3" x="-58.5" y="600.5" rx="1.5" transform="rotate(63, 35, 602)" opacity="0.93"></rect><rect width="431" height="3" x="111.5" y="689.5" rx="1.5" transform="rotate(63, 327, 691)" opacity="0.81"></rect><rect width="124" height="3" x="63" y="646.5" rx="1.5" transform="rotate(63, 125, 648)" opacity="0.67"></rect><rect width="228" height="3" x="250" y="455.5" rx="1.5" transform="rotate(63, 364, 457)" opacity="0.58"></rect><rect width="151" height="3" x="422.5" y="319.5" rx="1.5" transform="rotate(63, 498, 321)" opacity="0.34"></rect><rect width="189" height="3" x="535.5" y="341.5" rx="1.5" transform="rotate(63, 630, 343)" opacity="0.48"></rect><rect width="208" height="3" x="55" y="578.5" rx="1.5" transform="rotate(63, 159, 580)" opacity="0.76"></rect><rect width="538" height="3" x="-230" y="145.5" rx="1.5" transform="rotate(63, 39, 147)" opacity="0.92"></rect><rect width="151" height="3" x="477.5" y="497.5" rx="1.5" transform="rotate(63, 553, 499)" opacity="0.17"></rect><rect width="383" height="3" x="150.5" y="537.5" rx="1.5" transform="rotate(63, 342, 539)" opacity="0.25"></rect><rect width="470" height="3" x="478" y="722.5" rx="1.5" transform="rotate(63, 713, 724)" opacity="0.83"></rect><rect width="420" height="3" x="59" y="483.5" rx="1.5" transform="rotate(63, 269, 485)" opacity="0.12"></rect><rect width="496" height="3" x="449" y="569.5" rx="1.5" transform="rotate(63, 697, 571)" opacity="0.66"></rect><rect width="572" height="3" x="353" y="754.5" rx="1.5" transform="rotate(63, 639, 756)" opacity="0.27"></rect><rect width="179" height="3" x="112.5" y="518.5" rx="1.5" transform="rotate(63, 202, 520)" opacity="0.51"></rect><rect width="465" height="3" x="-190.5" y="463.5" rx="1.5" transform="rotate(63, 42, 465)" opacity="0.71"></rect><rect width="161" height="3" x="333.5" y="36.5" rx="1.5" transform="rotate(63, 414, 38)" opacity="0.72"></rect><rect width="613" height="3" x="8.5" y="210.5" rx="1.5" transform="rotate(63, 315, 212)" opacity="0.40"></rect><rect width="133" height="3" x="388.5" y="180.5" rx="1.5" transform="rotate(63, 455, 182)" opacity="0.78"></rect><rect width="94" height="3" x="382" y="602.5" rx="1.5" transform="rotate(63, 429, 604)" opacity="0.39"></rect><rect width="113" height="3" x="99.5" y="42.5" rx="1.5" transform="rotate(63, 156, 44)" opacity="0.26"></rect><rect width="376" height="3" x="-56" y="364.5" rx="1.5" transform="rotate(63, 132, 366)" opacity="0.54"></rect><rect width="91" height="3" x="95.5" y="468.5" rx="1.5" transform="rotate(63, 141, 470)" opacity="0.82"></rect><rect width="162" height="3" x="479" y="38.5" rx="1.5" transform="rotate(63, 560, 40)" opacity="0.97"></rect><rect width="61" height="3" x="281.5" y="76.5" rx="1.5" transform="rotate(63, 312, 78)" opacity="0.91"></rect><rect width="346" height="3" x="579" y="350.5" rx="1.5" transform="rotate(63, 752, 352)" opacity="0.70"></rect><rect width="271" height="3" x="407.5" y="623.5" rx="1.5" transform="rotate(63, 543, 625)" opacity="0.14"></rect><rect width="422" height="3" x="-37" y="420.5" rx="1.5" transform="rotate(63, 174, 422)" opacity="0.40"></rect><rect width="279" height="3" x="625.5" y="531.5" rx="1.5" transform="rotate(63, 765, 533)" opacity="0.12"></rect><rect width="480" height="3" x="-53" y="212.5" rx="1.5" transform="rotate(63, 187, 214)" opacity="0.55"></rect></g></svg>